# xmcd
#
# Track frame offsets:
#	150
#	14892
#	27250
#	42443
#	54641
#	71301
#	85746
#	99708
#	114068
#	130970
#	147730
#	162865
#
# Disc length: 2372 seconds
#
# Revision: 0
# Processed by: cddbd v1.5.2PL0 Copyright (c) Steve Scherf et al.
# Submitted via: EZCDAudioConverter 2.2.2.1
#
DISCID=a509420c
DTITLE=Anniqa - Made in Texas
DYEAR=2017
DGENRE=Country/Pop
TTITLE0=Mule skinner blues
TTITLE1=9 to 5
TTITLE2=Heartbreaker
TTITLE3=Listen to the country song
TTITLE4=You light up my life
TTITLE5=Two doors down
TTITLE6=Sikken dejlig dame
TTITLE7=Banks of the Ohio
TTITLE8=Smile
TTITLE9=Torn between two lovers
TTITLE10=Silverbird
TTITLE11=Applejack
EXTD=
EXTT0=
EXTT1=
EXTT2=
EXTT3=
EXTT4=
EXTT5=
EXTT6=
EXTT7=
EXTT8=
EXTT9=
EXTT10=
EXTT11=
PLAYORDER=
